{"title":"UFC on FX Belfort vs Bisping DSR XviD-XWT","uid":8042379,"size":910972545,"categoryP":"video","categoryS":"tv_shows","magnet":"?xt=urn:btih:95f99e7edc8f3832226a432162267ec12b340a98&amp;dn=UFC+on+FX+Belfort+vs+Bisping+DSR+XviD-XWT&amp;tr=udp%3A%2F%2Ftracker.openbittorrent.com%3A80&amp;tr=udp%3A%2F%2Fopen.demonii.com%3A1337&amp;tr=udp%3A%2F%2Ftracker.coppersurfer.tk%3A6969&amp;tr=udp%3A%2F%2Fexodus.desync.com%3A6969","seeders":1,"leechers":0,"uploader":"tykoon123","files":-1,"time":1358663474,"description":"Info:\nFormat : AVI\nFormat/Info : Audio Video Interleave\nFile size : 869 MiB\nDuration : 1h 30mn\nOverall bit rate : 1 338 Kbps\n\nVideo\nID : 0\nFormat : MPEG-4 Visual\nFormat profile : Advanced Simple@L5\nFormat settings, BVOP : 2\nFormat settings, QPel : No\nFormat settings, GMC : No warppoints\nFormat settings, Matrix : Default (H.263)\nCodec ID : XVID\nCodec ID/Hint : XviD\nDuration : 1h 30mn\nBit rate : 1 198 Kbps\nWidth : 640 pixels\nHeight : 368 pixels\nDisplay aspect ratio : 1.739\nFrame rate : 25.000 fps\nColor space : YUV\nChroma subsampling : 4:2:0\nBit depth : 8 bits\nScan type : Progressive\nCompression mode : Lossy\nBits/(Pixel*Frame) : 0.203\nStream size : 778 MiB (90%)\nWriting library : XviD 1.1.2 (UTC 2006-11-01)\n\nAudio\nID : 1\nFormat : MPEG Audio\nFormat version : Version 1\nFormat profile : Layer 3\nMode : Joint stereo\nMode extension : MS Stereo\nCodec ID : 55\nCodec ID/Hint : MP3\nDuration : 1h 30mn\nBit rate mode : Constant\nBit rate : 128 Kbps\nChannel(s) : 2 channels\nSampling rate : 44.1 KHz\nCompression mode : Lossy\nStream size : 83.1 MiB (10%)\nAlignment : Aligned on interleaves\nInterleave, duration : 26 ms (0.65 video frame)\nInterleave, preload duration : 809 ms","torrent":{"xt":"urn:btih:95f99e7edc8f3832226a432162267ec12b340a98","amp;dn":"UFC+on+FX+Belfort+vs+Bisping+DSR+XviD-XWT","amp;tr":["udp%3A%2F%2Ftracker.openbittorrent.com%3A80","udp%3A%2F%2Fopen.demonii.com%3A1337","udp%3A%2F%2Ftracker.coppersurfer.tk%3A6969","udp%3A%2F%2Fexodus.desync.com%3A6969"],"infoHash":"95f99e7edc8f3832226a432162267ec12b340a98","infoHashBuffer":{"type":"Buffer","data":[149,249,158,126,220,143,56,50,34,106,67,33,98,38,126,193,43,52,10,152]},"announce":[],"urlList":[]}}